<?xml version="1.0" encoding="UTF-8"?>
<svg xmlns="http://www.w3.org/2000/svg" xmlns:xlink="http://www.w3.org/1999/xlink" width="100px" height="100px" viewBox="0 0 100 100" version="1.1">
<defs>
<linearGradient id="linear0" gradientUnits="userSpaceOnUse" x1="168.550003" y1="13.4" x2="27.200001" y2="57" gradientTransform="matrix(0.818267,0,0,1.008369,0.147081,0)">
<stop offset="0" style="stop-color:rgb(100%,94.509804%,0%);stop-opacity:1;"/>
<stop offset="1" style="stop-color:rgb(94.117647%,35.294118%,15.686275%);stop-opacity:1;"/>
</linearGradient>
</defs>
<g id="surface1">
<path style=" stroke:none;fill-rule:nonzero;fill:url(#linear0);" d="M 3.960938 25.210938 L 2.085938 25.210938 C 1.015625 25.210938 0.148438 26.277344 0.148438 27.597656 C 0.148438 28.917969 1.015625 29.988281 2.085938 29.988281 L 3.960938 29.988281 C 5.03125 29.988281 5.898438 28.917969 5.898438 27.597656 C 5.898438 26.277344 5.03125 25.210938 3.960938 25.210938 Z M 39.816406 60.070312 L 37.941406 60.070312 C 36.871094 60.070312 36.003906 61.136719 36.003906 62.457031 C 36.003906 63.777344 36.871094 64.847656 37.941406 64.847656 L 39.816406 64.847656 C 40.886719 64.847656 41.757812 63.777344 41.757812 62.457031 C 41.757812 61.136719 40.886719 60.070312 39.816406 60.070312 Z M 38.246094 37.308594 C 38.246094 35.988281 37.378906 34.917969 36.304688 34.917969 L 29.824219 34.917969 C 28.753906 34.917969 27.886719 35.988281 27.886719 37.308594 C 27.886719 38.628906 28.753906 39.699219 29.824219 39.699219 L 36.304688 39.699219 C 37.378906 39.699219 38.246094 38.628906 38.246094 37.308594 Z M 99.753906 22.285156 L 97.78125 8.632812 C 97.226562 3.507812 93.585938 -0.238281 89.394531 0 L 13.4375 0 C 11.835938 -0.0703125 10.300781 0.78125 9.285156 2.304688 C 8.269531 3.824219 7.886719 5.84375 8.246094 7.765625 L 10.328125 22.285156 C 10.34375 22.402344 10.363281 22.515625 10.390625 22.628906 C 10.636719 24.402344 9.910156 25.117188 9.253906 25.378906 C 8.371094 25.773438 7.839844 26.890625 8 28.035156 C 8.160156 29.175781 8.960938 30.011719 9.902344 30.019531 L 94.566406 30.019531 C 96.160156 30.085938 97.6875 29.238281 98.703125 27.726562 C 99.722656 26.210938 100.109375 24.199219 99.753906 22.285156 Z M 73.914062 77.058594 C 73.09375 71.765625 70.640625 69.800781 67.867188 69.800781 L 47.804688 69.800781 C 46.726562 69.808594 45.859375 70.890625 45.863281 72.21875 C 45.855469 73.453125 46.609375 74.496094 47.605469 74.621094 C 48.246094 74.761719 48.933594 75.789062 49.367188 78.332031 L 51.429688 92.449219 C 52.203125 96.820312 55.316406 99.96875 58.949219 100.050781 L 70.917969 99.980469 C 72.515625 100.074219 74.058594 99.25 75.089844 97.746094 C 76.125 96.242188 76.527344 94.230469 76.1875 92.304688 Z M 47.386719 65.019531 L 69.160156 65.019531 C 69.324219 65.015625 69.484375 64.984375 69.640625 64.929688 C 71.65625 64.40625 71.753906 62.386719 71.492188 60.382812 L 68.71875 41.617188 C 67.957031 36.734375 65.65625 34.808594 62.636719 34.808594 L 42.695312 34.808594 C 41.679688 34.824219 40.84375 35.804688 40.78125 37.058594 C 40.722656 38.308594 41.457031 39.40625 42.46875 39.570312 C 43.128906 39.71875 43.859375 40.820312 44.285156 43.601562 L 46.386719 57.960938 C 46.503906 58.484375 46.433594 59.042969 46.199219 59.5 C 45.964844 59.957031 45.585938 60.273438 45.152344 60.371094 C 44.257812 60.753906 43.71875 61.875 43.878906 63.023438 C 44.039062 64.171875 44.851562 65.007812 45.796875 65 L 47.351562 65 Z M 47.386719 65.019531 "/>
</g>
</svg>
